<svg width="29" height="29" viewBox="0 0 29 29" fill="none" xmlns="http://www.w3.org/2000/svg">
<g clip-path="url(#clip0_1_5)">
<path d="M22.39 0H6.48C2.90119 0 0 2.90119 0 6.48V22.39C0 25.9688 2.90119 28.87 6.48 28.87H22.39C25.9688 28.87 28.87 25.9688 28.87 22.39V6.48C28.87 2.90119 25.9688 0 22.39 0Z" fill="#FF4B33"/>
<path d="M13.3016 6.14V7.886H12.3296C11.6216 7.886 11.1656 7.988 10.9616 8.192C10.7576 8.396 10.6556 8.894 10.6556 9.686V11.666C10.6556 12.458 10.5116 13.076 10.2236 13.52C9.93559 13.952 9.46159 14.306 8.80159 14.582V14.618C9.46159 14.894 9.93559 15.254 10.2236 15.698C10.5116 16.13 10.6556 16.742 10.6556 17.534V19.514C10.6556 20.306 10.7576 20.804 10.9616 21.008C11.1656 21.212 11.6216 21.314 12.3296 21.314H13.3016V23.06H11.1956C10.2236 23.06 9.52159 22.838 9.08959 22.394C8.65759 21.95 8.44159 21.212 8.44159 20.18V17.624C8.44159 16.88 8.31559 16.346 8.06359 16.022C7.81159 15.698 7.41559 15.536 6.87559 15.536H6.15559V13.664H6.87559C7.41559 13.664 7.81159 13.502 8.06359 13.178C8.31559 12.854 8.44159 12.32 8.44159 11.576V9.02C8.44159 7.988 8.65759 7.25 9.08959 6.806C9.52159 6.362 10.2236 6.14 11.1956 6.14H13.3016Z" fill="white"/>
<path d="M15.6956 6.14H17.8016C18.7736 6.14 19.4756 6.362 19.9076 6.806C20.3396 7.25 20.5556 7.988 20.5556 9.02V11.576C20.5556 12.32 20.6816 12.854 20.9336 13.178C21.1856 13.502 21.5816 13.664 22.1216 13.664H22.8416V15.536H22.1216C21.5816 15.536 21.1856 15.698 20.9336 16.022C20.6816 16.346 20.5556 16.88 20.5556 17.624V20.18C20.5556 21.212 20.3396 21.95 19.9076 22.394C19.4756 22.838 18.7736 23.06 17.8016 23.06H15.6956V21.314H16.6496C17.3576 21.314 17.8136 21.212 18.0176 21.008C18.2336 20.804 18.3416 20.306 18.3416 19.514V17.534C18.3416 16.742 18.4856 16.13 18.7736 15.698C19.0616 15.254 19.5356 14.894 20.1956 14.618V14.582C19.5356 14.306 19.0616 13.952 18.7736 13.52C18.4856 13.076 18.3416 12.458 18.3416 11.666V9.686C18.3416 8.894 18.2336 8.396 18.0176 8.192C17.8136 7.988 17.3576 7.886 16.6496 7.886H15.6956V6.14Z" fill="white"/>
</g>
<defs>
<clipPath id="clip0_1_5">
<rect width="28.87" height="28.87" fill="white"/>
</clipPath>
</defs>
</svg>
